<svg width="180" height="189" viewBox="0 0 180 189" fill="none" xmlns="http://www.w3.org/2000/svg">
<path d="M140.348 177.713C133.132 179.962 124.604 181 114.6 181H65.3998C55.3958 181 46.8678 179.962 39.6518 177.713C41.4558 155.223 63.3498 137.49 89.9998 137.49C116.65 137.49 138.544 155.223 140.348 177.713Z" stroke="#0064FA" stroke-width="15" stroke-linecap="round" stroke-linejoin="round"/>
<path d="M119.355 82.217C119.355 99.344 106.235 113.27 89.999 113.27C73.763 113.27 60.643 99.344 60.643 82.217C60.643 65.09 73.763 51.25 89.999 51.25C106.235 51.25 119.355 65.09 119.355 82.217Z" stroke="#0064FA" stroke-width="15" stroke-linecap="round" stroke-linejoin="round"/>
<path d="M114.6 8H65.4C24.4 8 8 25.3 8 68.55V120.45C8 153.147 17.348 171.052 39.652 177.713C41.456 155.223 63.35 137.49 90 137.49C116.65 137.49 138.544 155.223 140.348 177.713C162.652 171.052 172 153.147 172 120.45V68.55C172 25.3 155.6 8 114.6 8ZM90 113.27C73.764 113.27 60.644 99.344 60.644 82.217C60.644 65.09 73.764 51.25 90 51.25C106.236 51.25 119.356 65.09 119.356 82.217C119.356 99.344 106.236 113.27 90 113.27Z" stroke="#0064FA" stroke-width="15" stroke-linecap="round" stroke-linejoin="round"/>
</svg>
