<?xml version="1.0" standalone="no"?>
<!DOCTYPE svg PUBLIC "-//W3C//DTD SVG 20010904//EN"
 "http://www.w3.org/TR/2001/REC-SVG-20010904/DTD/svg10.dtd">
<svg version="1.0" xmlns="http://www.w3.org/2000/svg"
 width="550.000000pt" height="550.000000pt" viewBox="0 0 550.000000 550.000000"
 preserveAspectRatio="xMidYMid meet">

<g transform="translate(0.000000,550.000000) scale(0.100000,-0.100000)"
fill="#000000" stroke="none">
<path d="M2915 5021 c-29 -66 -105 -121 -165 -121 -18 0 -41 -40 -137 -237
-222 -459 -225 -465 -212 -491 7 -12 18 -21 24 -20 7 2 302 104 657 228 l644
224 12 56 c7 30 13 61 14 69 2 8 -28 36 -67 63 -160 111 -426 218 -624 252
-127 22 -125 22 -146 -23z"/>
<path d="M2404 5030 c-176 -40 -376 -124 -532 -225 -124 -81 -133 -90 -120
-127 6 -16 8 -58 6 -93 l-6 -63 199 -167 c196 -164 199 -166 223 -150 13 9 48
18 78 20 l53 3 167 346 168 347 -37 32 c-20 17 -42 46 -50 64 -16 39 -29 40
-149 13z"/>
<path d="M3550 4450 c-107 -38 -395 -138 -640 -223 -409 -143 -445 -157 -445
-178 0 -21 21 -27 459 -128 355 -82 460 -103 464 -92 7 20 62 80 86 93 11 6
45 14 76 17 l55 6 109 258 109 257 -28 30 c-16 17 -34 30 -39 29 -6 0 -99 -31
-206 -69z"/>
<path d="M4017 4454 c-3 -3 -29 -9 -57 -13 l-52 -6 -104 -245 c-57 -135 -107
-253 -110 -263 -4 -12 3 -29 19 -45 33 -36 47 -65 55 -114 l7 -42 249 -93 249
-93 39 36 c22 20 53 40 69 46 22 8 28 15 24 31 -2 12 -12 60 -21 106 -36 186
-127 402 -241 573 -78 118 -104 143 -126 122z"/>
<path d="M1665 4441 c-3 -5 -29 -15 -58 -21 -43 -10 -60 -9 -95 3 l-43 15 -44
-59 c-51 -70 -134 -212 -165 -284 -58 -133 -110 -307 -125 -412 -7 -51 -6 -52
27 -68 18 -10 43 -26 54 -37 21 -19 22 -19 325 138 167 87 353 183 412 214
l109 57 3 51 c2 28 8 59 14 70 8 16 -16 40 -185 180 -106 89 -200 162 -208
162 -8 0 -17 -4 -21 -9z"/>
<path d="M2397 3888 l-48 -50 101 -327 c56 -179 117 -376 137 -437 l35 -112
52 -6 c28 -3 62 -7 75 -8 20 -3 53 28 184 172 88 96 220 241 294 322 188 206
176 187 157 241 -12 35 -22 47 -42 52 -79 20 -887 205 -892 204 -3 -1 -27 -24
-53 -51z"/>
<path d="M1681 3691 l-404 -209 -2 -50 -2 -51 131 -55 c72 -30 347 -145 611
-255 l479 -201 24 23 c18 17 22 29 18 51 -6 28 -182 594 -247 792 -30 91 -30
92 -68 98 -21 3 -56 19 -79 36 -23 16 -45 30 -49 30 -5 0 -190 -94 -412 -209z"/>
<path d="M3712 3607 l-33 -34 118 -586 117 -587 39 0 c21 0 52 -7 69 -16 29
-15 31 -15 47 7 189 257 301 523 337 796 l6 51 -44 20 c-64 28 -118 109 -118
177 0 19 -29 32 -247 113 -137 51 -250 92 -254 92 -3 0 -20 -15 -37 -33z"/>
<path d="M3214 3298 c-136 -150 -279 -305 -317 -345 l-69 -71 16 -31 c10 -18
16 -55 16 -93 l0 -63 113 -49 c61 -27 162 -72 222 -99 61 -27 151 -67 200 -89
175 -78 245 -111 241 -115 -2 -3 -23 5 -47 16 -48 24 -53 25 -44 11 3 -5 -7
-3 -22 5 -18 9 -31 11 -39 5 -6 -6 -26 -7 -45 -4 -48 10 -36 1 64 -41 48 -21
90 -41 92 -45 3 -5 -57 19 -132 52 -76 33 -172 75 -213 93 -41 18 -155 67
-252 110 l-177 77 -53 -25 c-29 -14 -61 -27 -70 -30 -11 -4 -16 -14 -13 -29 2
-13 5 -79 8 -148 4 -83 3 -107 -3 -72 -7 49 -20 82 -20 52 0 -10 -3 -10 -15 0
-15 13 -21 -1 -27 -65 -2 -16 -8 37 -14 118 -9 126 -14 150 -30 162 -54 40
-53 40 -190 -25 -71 -34 -219 -105 -329 -157 -110 -52 -212 -102 -227 -109
-16 -8 -28 -12 -28 -10 0 7 132 76 145 76 6 0 20 7 31 16 18 15 18 15 -2 5
-12 -6 -25 -7 -29 -3 -10 10 -29 9 -37 -3 -5 -7 -13 -6 -25 1 -14 9 -30 6 -76
-18 -32 -16 -63 -28 -68 -26 -5 2 41 28 103 58 62 29 219 105 348 168 129 63
245 118 258 123 21 8 23 13 16 56 -3 27 -9 51 -13 54 -3 3 -40 19 -81 36 -41
17 -185 76 -320 133 -899 374 -821 344 -850 326 -14 -10 -40 -24 -57 -32 -28
-12 -32 -18 -28 -42 48 -287 111 -463 238 -667 86 -139 74 -129 140 -115 45
11 65 10 102 0 48 -14 115 -67 115 -91 0 -8 -9 -2 -21 13 -19 26 -20 26 -165
27 -99 1 -144 -2 -139 -9 3 -6 -3 -25 -14 -43 -13 -21 -18 -41 -14 -57 4 -15
2 -21 -5 -17 -18 12 -2 -54 24 -99 27 -48 75 -91 109 -100 26 -6 102 -1 148
11 23 6 37 0 85 -37 195 -152 453 -269 689 -314 109 -20 114 -23 135 -66 23
-48 90 -106 133 -114 89 -16 176 19 214 88 32 58 34 59 152 79 112 18 252 57
356 98 120 47 324 162 380 214 18 16 30 18 65 13 24 -4 58 -10 76 -13 49 -8
116 22 157 69 19 23 32 45 29 49 -3 5 0 9 6 9 6 0 9 4 5 9 -3 5 -1 12 5 16 12
7 14 75 2 75 -4 0 -14 16 -21 36 -12 33 -11 39 8 65 12 15 21 32 21 36 0 4 -5
1 -10 -7 -7 -11 -10 -11 -10 -2 0 14 -35 12 -58 -2 -8 -5 -24 -3 -39 5 -22 12
-27 11 -40 -6 -10 -13 -14 -14 -10 -4 4 13 -5 16 -49 17 -41 1 -53 -2 -47 -11
5 -9 4 -9 -8 0 -13 10 -23 4 -62 -34 l-47 -46 -40 18 c-22 10 -38 20 -36 22 2
2 19 -4 39 -13 l35 -17 41 43 41 43 -25 106 c-13 58 -67 317 -120 575 -52 258
-97 472 -100 476 -2 4 -24 10 -47 13 -24 3 -52 9 -64 12 -18 6 -59 -35 -270
-267z m-577 -1135 c-3 -10 -5 -2 -5 17 0 19 2 27 5 18 2 -10 2 -26 0 -35z m70
15 c-3 -7 -5 -2 -5 12 0 14 2 19 5 13 2 -7 2 -19 0 -25z"/>
<path d="M1080 1121 c0 -20 5 -21 109 -21 151 0 212 -24 251 -100 39 -76 16
-183 -47 -228 -46 -31 -91 -42 -179 -42 l-84 0 0 90 c0 89 0 90 -25 90 l-25 0
0 -111 0 -111 133 4 c110 3 139 8 173 25 165 86 165 310 0 396 -34 17 -63 22
-173 25 -130 4 -133 4 -133 -17z"/>
<path d="M1735 1130 c-12 -20 -195 -424 -195 -432 0 -4 10 -8 23 -8 19 0 33
25 107 195 47 107 87 195 90 195 3 0 44 -87 91 -192 78 -177 88 -193 112 -196
l27 -3 -33 73 c-18 40 -65 142 -103 225 -58 129 -72 153 -91 153 -12 0 -24 -4
-28 -10z"/>
<path d="M1970 1120 c0 -18 7 -20 80 -20 l80 0 0 -205 0 -205 25 0 25 0 0 205
0 205 75 0 c68 0 75 2 75 20 0 19 -7 20 -180 20 -173 0 -180 -1 -180 -20z"/>
<path d="M2511 1123 c-20 -39 -191 -421 -191 -427 0 -4 10 -6 22 -4 22 3 52
62 171 338 l28 65 88 -200 c79 -180 91 -200 114 -203 25 -3 23 4 -76 222 -88
195 -105 225 -124 226 -12 0 -26 -8 -32 -17z"/>
<path d="M2784 1123 c3 -10 37 -110 74 -223 63 -187 71 -205 93 -208 23 -3 27
7 89 187 36 105 68 187 71 183 4 -4 21 -52 39 -107 74 -228 90 -265 114 -265
19 0 29 23 94 218 39 120 72 221 72 225 0 4 -8 7 -18 7 -14 0 -30 -39 -81
-191 -35 -105 -67 -187 -71 -182 -4 4 -18 40 -30 78 -71 220 -102 295 -121
295 -11 0 -23 -10 -28 -22 -4 -13 -34 -98 -65 -190 -32 -92 -61 -166 -65 -163
-4 2 -34 87 -66 189 -55 172 -61 186 -83 186 -18 0 -22 -4 -18 -17z"/>
<path d="M3520 915 l0 -225 25 0 25 0 0 225 0 225 -25 0 -25 0 0 -225z"/>
<path d="M3690 1120 c0 -18 8 -20 145 -22 l146 -3 -53 -65 c-130 -158 -248
-314 -248 -326 0 -11 34 -14 180 -14 173 0 180 1 180 20 0 19 -7 20 -145 20
-80 0 -145 3 -145 8 0 4 66 90 145 192 80 102 145 191 145 198 0 9 -42 12
-175 12 -168 0 -175 -1 -175 -20z"/>
<path d="M4140 1120 c0 -16 7 -20 30 -20 23 0 30 4 30 20 0 16 -7 20 -30 20
-23 0 -30 -4 -30 -20z"/>
<path d="M4140 920 c0 -16 7 -20 30 -20 23 0 30 4 30 20 0 16 -7 20 -30 20
-23 0 -30 -4 -30 -20z"/>
<path d="M4140 710 c0 -16 7 -20 30 -20 23 0 30 4 30 20 0 16 -7 20 -30 20
-23 0 -30 -4 -30 -20z"/>
</g>
</svg>
